# MagicaVoxel @ Ephtracy

# group
o 

# material
mtllib flower_paste.mtl
usemtl palette

# normals
vn -1 0 0
vn 1 0 0
vn 0 0 1
vn 0 0 -1
vn 0 -1 0
vn 0 1 0

# texcoords
vt 0.369141 0.5
vt 0.845703 0.5

# verts
v -1 0.1 0.9
v -1 0.1 -0.9
v -1 0.5 0.9
v -1 0.5 -0.9
v -0.9 0 0.9
v -0.9 0 -0.9
v -0.9 0.1 1
v -0.9 0.1 0.9
v -0.9 0.1 -0.9
v -0.9 0.1 -1
v -0.9 0.5 1
v -0.9 0.5 0.9
v -0.9 0.5 -0.9
v -0.9 0.5 -1
v -0.7 0.2 0.8
v -0.7 0.2 0.2
v -0.7 0.2 -0.2
v -0.7 0.2 -0.8
v -0.7 0.3 0.8
v -0.7 0.3 0.6
v -0.7 0.3 0.2
v -0.7 0.3 0
v -0.7 0.3 -0.2
v -0.7 0.3 -0.6
v -0.7 0.3 -0.8
v -0.7 0.4 0.3
v -0.7 0.4 0
v -0.7 0.4 -0.2
v -0.7 0.4 -0.6
v -0.7 0.5 0.6
v -0.7 0.5 0.3
v -0.6 0.3 0.8
v -0.6 0.3 0.6
v -0.6 0.3 0
v -0.6 0.3 -0.2
v -0.6 0.3 -0.7
v -0.6 0.3 -0.8
v -0.6 0.4 0.3
v -0.6 0.4 0.2
v -0.6 0.4 0
v -0.6 0.4 -0.2
v -0.6 0.4 -0.3
v -0.6 0.4 -0.4
v -0.6 0.4 -0.6
v -0.6 0.5 0.8
v -0.6 0.5 0.6
v -0.6 0.5 0.3
v -0.6 0.5 0.2
v -0.6 0.5 -0.2
v -0.6 0.5 -0.3
v -0.6 0.5 -0.5
v -0.6 0.5 -0.6
v -0.6 0.5 -0.7
v -0.6 0.5 -0.8
v -0.6 0.6 0
v -0.6 0.6 -0.2
v -0.6 0.6 -0.4
v -0.6 0.6 -0.5
v -0.5 0.3 -0.6
v -0.5 0.3 -0.7
v -0.5 0.4 0.2
v -0.5 0.4 0
v -0.5 0.4 -0.3
v -0.5 0.4 -0.4
v -0.5 0.4 -0.6
v -0.5 0.4 -0.7
v -0.5 0.5 0.6
v -0.5 0.5 0.4
v -0.5 0.5 0.2
v -0.5 0.5 -0.2
v -0.5 0.5 -0.3
v -0.5 0.5 -0.5
v -0.5 0.5 -0.6
v -0.5 0.6 0.6
v -0.5 0.6 0.4
v -0.5 0.6 0.2
v -0.5 0.6 0
v -0.5 0.6 -0.2
v -0.5 0.6 -0.4
v -0.5 0.6 -0.5
v -0.5 0.6 -0.6
v -0.4 0.5 0.4
v -0.4 0.5 0.2
v -0.4 0.6 0.4
v -0.4 0.6 0.3
v -0.4 0.6 0.2
v -0.4 0.6 0.1
v -0.4 0.7 0.3
v -0.4 0.7 0.1
v -0.2 0.5 -0.4
v -0.2 0.5 -0.5
v -0.2 0.6 -0.3
v -0.2 0.6 -0.4
v -0.2 0.7 -0.3
v -0.2 0.7 -0.5
v 0 0.3 0.7
v 0 0.3 0.6
v 0 0.4 0.7
v 0 0.4 0.6
v 0 0.4 -0.5
v 0 0.4 -0.7
v 0 0.6 -0.5
v 0 0.6 -0.7
v 0.2 0.5 0
v 0.2 0.5 -0.3
v 0.2 0.6 0
v 0.2 0.6 -0.3
v 0.7 0.2 0.8
v 0.7 0.2 -0.8
v 0.7 0.5 0.8
v 0.7 0.5 -0.8
v -0.8 0.2 0.8
v -0.8 0.2 0.2
v -0.8 0.2 -0.2
v -0.8 0.2 -0.8
v -0.8 0.3 0.2
v -0.8 0.3 -0.2
v -0.8 0.5 0.8
v -0.8 0.5 -0.8
v -0.4 0.4 -0.7
v -0.4 0.4 -0.8
v -0.4 0.5 -0.7
v -0.4 0.5 -0.8
v -0.3 0.5 -0.4
v -0.3 0.5 -0.6
v -0.3 0.6 -0.4
v -0.3 0.6 -0.6
v -0.2 0.2 0.8
v -0.2 0.2 0.7
v -0.2 0.3 0.7
v -0.2 0.3 0.6
v -0.2 0.5 0.8
v -0.2 0.5 0.6
v -0.2 0.5 0.4
v -0.2 0.6 0.6
v -0.2 0.6 0.4
v -0.2 0.6 0.3
v -0.2 0.6 0.1
v -0.2 0.7 0.3
v -0.2 0.7 0.1
v -0.1 0.4 -0.5
v -0.1 0.4 -0.6
v -0.1 0.5 0.4
v -0.1 0.5 0.2
v -0.1 0.5 -0.1
v -0.1 0.5 -0.3
v -0.1 0.5 -0.5
v -0.1 0.5 -0.6
v -0.1 0.6 0.4
v -0.1 0.6 0.2
v -0.1 0.6 -0.1
v -0.1 0.6 -0.3
v 0 0.3 -0.7
v 0 0.3 -0.8
v 0 0.4 -0.7
v 0 0.4 -0.8
v 0 0.5 0.2
v 0 0.5 -0.1
v 0 0.5 -0.3
v 0 0.5 -0.5
v 0 0.6 0.2
v 0 0.6 -0.1
v 0 0.6 -0.5
v 0 0.7 -0.3
v 0 0.7 -0.5
v 0.1 0.4 0.6
v 0.1 0.4 0.5
v 0.1 0.5 0.6
v 0.1 0.5 0.5
v 0.2 0.5 -0.5
v 0.2 0.5 -0.7
v 0.2 0.6 -0.5
v 0.2 0.6 -0.7
v 0.3 0.4 -0.5
v 0.3 0.4 -0.7
v 0.3 0.5 -0.5
v 0.3 0.5 -0.7
v 0.4 0.3 -0.6
v 0.4 0.3 -0.7
v 0.4 0.4 0.5
v 0.4 0.4 0.2
v 0.4 0.4 -0.2
v 0.4 0.4 -0.5
v 0.4 0.4 -0.6
v 0.4 0.4 -0.7
v 0.4 0.5 0.5
v 0.4 0.5 0.2
v 0.4 0.5 0
v 0.4 0.5 -0.2
v 0.4 0.5 -0.3
v 0.4 0.5 -0.5
v 0.4 0.6 0
v 0.4 0.6 -0.3
v 0.5 0.3 -0.1
v 0.5 0.3 -0.2
v 0.5 0.3 -0.5
v 0.5 0.3 -0.6
v 0.5 0.4 0.2
v 0.5 0.4 -0.1
v 0.5 0.4 -0.2
v 0.5 0.4 -0.5
v 0.5 0.4 -0.6
v 0.5 0.5 0.2
v 0.5 0.5 -0.2
v 0.6 0.2 0.7
v 0.6 0.2 -0.8
v 0.6 0.3 -0.1
v 0.6 0.3 -0.2
v 0.6 0.3 -0.5
v 0.6 0.3 -0.8
v 0.6 0.4 0.7
v 0.6 0.4 -0.1
v 0.6 0.4 -0.2
v 0.6 0.4 -0.5
v 0.9 0 0.9
v 0.9 0 -0.9
v 0.9 0.1 1
v 0.9 0.1 0.9
v 0.9 0.1 -0.9
v 0.9 0.1 -1
v 0.9 0.5 1
v 0.9 0.5 -1
v -0.9 0.1 1
v -0.9 0.5 1
v 0.9 0.1 1
v 0.9 0.5 1
v -1 0.1 0.9
v -1 0.5 0.9
v -0.9 0 0.9
v -0.9 0.1 0.9
v -0.9 0.5 0.9
v 0.9 0 0.9
v 0.9 0.1 0.9
v -0.2 0.2 0.7
v -0.2 0.3 0.7
v 0 0.3 0.7
v 0 0.4 0.7
v 0.6 0.2 0.7
v 0.6 0.4 0.7
v -0.7 0.3 0.6
v -0.7 0.5 0.6
v -0.6 0.3 0.6
v -0.6 0.5 0.6
v -0.5 0.5 0.6
v -0.5 0.6 0.6
v -0.2 0.3 0.6
v -0.2 0.5 0.6
v -0.2 0.6 0.6
v 0 0.3 0.6
v 0 0.4 0.6
v 0.1 0.4 0.6
v 0.1 0.5 0.6
v 0.1 0.4 0.5
v 0.1 0.5 0.5
v 0.4 0.4 0.5
v 0.4 0.5 0.5
v -0.2 0.5 0.4
v -0.2 0.6 0.4
v -0.1 0.5 0.4
v -0.1 0.6 0.4
v -0.4 0.6 0.3
v -0.4 0.7 0.3
v -0.2 0.6 0.3
v -0.2 0.7 0.3
v -0.8 0.2 0.2
v -0.8 0.3 0.2
v -0.7 0.2 0.2
v -0.7 0.3 0.2
v -0.5 0.5 0.2
v -0.5 0.6 0.2
v -0.4 0.5 0.2
v -0.4 0.6 0.2
v -0.1 0.5 0.2
v -0.1 0.6 0.2
v 0 0.5 0.2
v 0 0.6 0.2
v 0.4 0.4 0.2
v 0.4 0.5 0.2
v 0.5 0.4 0.2
v 0.5 0.5 0.2
v -0.6 0.4 0
v -0.6 0.6 0
v -0.5 0.4 0
v -0.5 0.6 0
v 0.2 0.5 0
v 0.2 0.6 0
v 0.4 0.5 0
v 0.4 0.6 0
v -0.7 0.3 -0.2
v -0.7 0.4 -0.2
v -0.6 0.3 -0.2
v -0.6 0.4 -0.2
v 0.5 0.3 -0.2
v 0.5 0.4 -0.2
v 0.6 0.3 -0.2
v 0.6 0.4 -0.2
v -0.2 0.6 -0.3
v -0.2 0.7 -0.3
v -0.1 0.5 -0.3
v -0.1 0.6 -0.3
v 0 0.5 -0.3
v 0 0.7 -0.3
v -0.6 0.4 -0.4
v -0.6 0.6 -0.4
v -0.5 0.4 -0.4
v -0.5 0.6 -0.4
v 0 0.5 -0.5
v 0 0.6 -0.5
v 0.2 0.5 -0.5
v 0.2 0.6 -0.5
v -0.6 0.3 -0.7
v -0.6 0.5 -0.7
v -0.5 0.3 -0.7
v -0.5 0.4 -0.7
v -0.4 0.4 -0.7
v -0.4 0.5 -0.7
v -0.8 0.2 -0.8
v -0.8 0.5 -0.8
v -0.7 0.2 -0.8
v -0.7 0.3 -0.8
v -0.6 0.3 -0.8
v -0.6 0.5 -0.8
v -0.4 0.4 -0.8
v -0.4 0.5 -0.8
v 0 0.3 -0.8
v 0 0.4 -0.8
v 0.6 0.2 -0.8
v 0.6 0.3 -0.8
v 0.7 0.2 -0.8
v 0.7 0.5 -0.8
v -0.8 0.2 0.8
v -0.8 0.5 0.8
v -0.7 0.2 0.8
v -0.7 0.3 0.8
v -0.6 0.3 0.8
v -0.6 0.5 0.8
v -0.2 0.2 0.8
v -0.2 0.5 0.8
v 0.7 0.2 0.8
v 0.7 0.5 0.8
v -0.5 0.5 0.4
v -0.5 0.6 0.4
v -0.4 0.5 0.4
v -0.4 0.6 0.4
v -0.7 0.4 0.3
v -0.7 0.5 0.3
v -0.6 0.4 0.3
v -0.6 0.5 0.3
v -0.6 0.4 0.2
v -0.6 0.5 0.2
v -0.5 0.4 0.2
v -0.5 0.5 0.2
v -0.4 0.6 0.1
v -0.4 0.7 0.1
v -0.2 0.6 0.1
v -0.2 0.7 0.1
v -0.7 0.3 0
v -0.7 0.4 0
v -0.6 0.3 0
v -0.6 0.4 0
v -0.1 0.5 -0.1
v -0.1 0.6 -0.1
v 0 0.5 -0.1
v 0 0.6 -0.1
v 0.5 0.3 -0.1
v 0.5 0.4 -0.1
v 0.6 0.3 -0.1
v 0.6 0.4 -0.1
v -0.8 0.2 -0.2
v -0.8 0.3 -0.2
v -0.7 0.2 -0.2
v -0.7 0.3 -0.2
v -0.6 0.5 -0.2
v -0.6 0.6 -0.2
v -0.5 0.5 -0.2
v -0.5 0.6 -0.2
v 0.4 0.4 -0.2
v 0.4 0.5 -0.2
v 0.5 0.4 -0.2
v 0.5 0.5 -0.2
v -0.6 0.4 -0.3
v -0.6 0.5 -0.3
v -0.5 0.4 -0.3
v -0.5 0.5 -0.3
v 0.2 0.5 -0.3
v 0.2 0.6 -0.3
v 0.4 0.5 -0.3
v 0.4 0.6 -0.3
v -0.3 0.5 -0.4
v -0.3 0.6 -0.4
v -0.2 0.5 -0.4
v -0.2 0.6 -0.4
v -0.6 0.5 -0.5
v -0.6 0.6 -0.5
v -0.5 0.5 -0.5
v -0.5 0.6 -0.5
v -0.2 0.5 -0.5
v -0.2 0.7 -0.5
v -0.1 0.4 -0.5
v -0.1 0.5 -0.5
v 0 0.4 -0.5
v 0 0.6 -0.5
v 0 0.7 -0.5
v 0.3 0.4 -0.5
v 0.3 0.5 -0.5
v 0.4 0.4 -0.5
v 0.4 0.5 -0.5
v 0.5 0.3 -0.5
v 0.5 0.4 -0.5
v 0.6 0.3 -0.5
v 0.6 0.4 -0.5
v -0.7 0.3 -0.6
v -0.7 0.4 -0.6
v -0.6 0.4 -0.6
v -0.6 0.5 -0.6
v -0.5 0.3 -0.6
v -0.5 0.4 -0.6
v -0.5 0.5 -0.6
v -0.5 0.6 -0.6
v -0.3 0.5 -0.6
v -0.3 0.6 -0.6
v -0.1 0.4 -0.6
v -0.1 0.5 -0.6
v 0.4 0.3 -0.6
v 0.4 0.4 -0.6
v 0.5 0.3 -0.6
v 0.5 0.4 -0.6
v 0 0.3 -0.7
v 0 0.4 -0.7
v 0 0.6 -0.7
v 0.2 0.5 -0.7
v 0.2 0.6 -0.7
v 0.3 0.4 -0.7
v 0.3 0.5 -0.7
v 0.4 0.3 -0.7
v 0.4 0.4 -0.7
v -1 0.1 -0.9
v -1 0.5 -0.9
v -0.9 0 -0.9
v -0.9 0.1 -0.9
v -0.9 0.5 -0.9
v 0.9 0 -0.9
v 0.9 0.1 -0.9
v -0.9 0.1 -1
v -0.9 0.5 -1
v 0.9 0.1 -1
v 0.9 0.5 -1
v -0.9 0 0.9
v 0.9 0 0.9
v -0.9 0 -0.9
v 0.9 0 -0.9
v -0.9 0.1 1
v 0.9 0.1 1
v -1 0.1 0.9
v -0.9 0.1 0.9
v 0.9 0.1 0.9
v -1 0.1 -0.9
v -0.9 0.1 -0.9
v 0.9 0.1 -0.9
v -0.9 0.1 -1
v 0.9 0.1 -1
v -0.8 0.2 0.8
v -0.7 0.2 0.8
v -0.2 0.2 0.8
v 0.7 0.2 0.8
v -0.2 0.2 0.7
v 0.6 0.2 0.7
v -0.8 0.2 0.2
v -0.7 0.2 0.2
v -0.8 0.2 -0.2
v -0.7 0.2 -0.2
v -0.8 0.2 -0.8
v -0.7 0.2 -0.8
v 0.6 0.2 -0.8
v 0.7 0.2 -0.8
v -0.7 0.3 0.8
v -0.6 0.3 0.8
v -0.2 0.3 0.7
v 0 0.3 0.7
v -0.7 0.3 0.6
v -0.6 0.3 0.6
v -0.2 0.3 0.6
v 0 0.3 0.6
v -0.8 0.3 0.2
v -0.7 0.3 0.2
v -0.7 0.3 0
v -0.6 0.3 0
v 0.5 0.3 -0.1
v 0.6 0.3 -0.1
v -0.8 0.3 -0.2
v -0.7 0.3 -0.2
v -0.6 0.3 -0.2
v 0.5 0.3 -0.2
v 0.6 0.3 -0.2
v 0.5 0.3 -0.5
v 0.6 0.3 -0.5
v -0.7 0.3 -0.6
v -0.5 0.3 -0.6
v 0.4 0.3 -0.6
v 0.5 0.3 -0.6
v -0.6 0.3 -0.7
v -0.5 0.3 -0.7
v 0 0.3 -0.7
v 0.4 0.3 -0.7
v -0.7 0.3 -0.8
v -0.6 0.3 -0.8
v 0 0.3 -0.8
v 0.6 0.3 -0.8
v 0 0.4 0.7
v 0.6 0.4 0.7
v 0 0.4 0.6
v 0.1 0.4 0.6
v 0.1 0.4 0.5
v 0.4 0.4 0.5
v -0.7 0.4 0.3
v -0.6 0.4 0.3
v -0.6 0.4 0.2
v -0.5 0.4 0.2
v 0.4 0.4 0.2
v 0.5 0.4 0.2
v -0.7 0.4 0
v -0.6 0.4 0
v -0.5 0.4 0
v 0.5 0.4 -0.1
v 0.6 0.4 -0.1
v -0.7 0.4 -0.2
v -0.6 0.4 -0.2
v 0.4 0.4 -0.2
v 0.5 0.4 -0.2
v 0.6 0.4 -0.2
v -0.6 0.4 -0.3
v -0.5 0.4 -0.3
v -0.6 0.4 -0.4
v -0.5 0.4 -0.4
v -0.1 0.4 -0.5
v 0 0.4 -0.5
v 0.3 0.4 -0.5
v 0.4 0.4 -0.5
v 0.5 0.4 -0.5
v 0.6 0.4 -0.5
v -0.7 0.4 -0.6
v -0.6 0.4 -0.6
v -0.5 0.4 -0.6
v -0.1 0.4 -0.6
v 0.4 0.4 -0.6
v 0.5 0.4 -0.6
v -0.5 0.4 -0.7
v -0.4 0.4 -0.7
v 0 0.4 -0.7
v 0.3 0.4 -0.7
v 0.4 0.4 -0.7
v -0.4 0.4 -0.8
v 0 0.4 -0.8
v -0.9 0.5 1
v 0.9 0.5 1
v -1 0.5 0.9
v -0.9 0.5 0.9
v -0.8 0.5 0.8
v -0.6 0.5 0.8
v -0.2 0.5 0.8
v 0.7 0.5 0.8
v -0.7 0.5 0.6
v -0.6 0.5 0.6
v -0.5 0.5 0.6
v -0.2 0.5 0.6
v 0.1 0.5 0.6
v 0.1 0.5 0.5
v 0.4 0.5 0.5
v -0.5 0.5 0.4
v -0.4 0.5 0.4
v -0.2 0.5 0.4
v -0.1 0.5 0.4
v -0.7 0.5 0.3
v -0.6 0.5 0.3
v -0.6 0.5 0.2
v -0.5 0.5 0.2
v -0.4 0.5 0.2
v -0.1 0.5 0.2
v 0 0.5 0.2
v 0.4 0.5 0.2
v 0.5 0.5 0.2
v 0.2 0.5 0
v 0.4 0.5 0
v -0.1 0.5 -0.1
v 0 0.5 -0.1
v -0.6 0.5 -0.2
v -0.5 0.5 -0.2
v 0.4 0.5 -0.2
v 0.5 0.5 -0.2
v -0.6 0.5 -0.3
v -0.5 0.5 -0.3
v -0.1 0.5 -0.3
v 0 0.5 -0.3
v 0.2 0.5 -0.3
v 0.4 0.5 -0.3
v -0.3 0.5 -0.4
v -0.2 0.5 -0.4
v -0.6 0.5 -0.5
v -0.5 0.5 -0.5
v -0.2 0.5 -0.5
v -0.1 0.5 -0.5
v 0 0.5 -0.5
v 0.2 0.5 -0.5
v 0.3 0.5 -0.5
v 0.4 0.5 -0.5
v -0.6 0.5 -0.6
v -0.5 0.5 -0.6
v -0.3 0.5 -0.6
v -0.1 0.5 -0.6
v -0.6 0.5 -0.7
v -0.4 0.5 -0.7
v 0.2 0.5 -0.7
v 0.3 0.5 -0.7
v -0.8 0.5 -0.8
v -0.6 0.5 -0.8
v -0.4 0.5 -0.8
v 0.7 0.5 -0.8
v -1 0.5 -0.9
v -0.9 0.5 -0.9
v -0.9 0.5 -1
v 0.9 0.5 -1
v -0.5 0.6 0.6
v -0.2 0.6 0.6
v -0.5 0.6 0.4
v -0.4 0.6 0.4
v -0.2 0.6 0.4
v -0.1 0.6 0.4
v -0.4 0.6 0.3
v -0.2 0.6 0.3
v -0.5 0.6 0.2
v -0.4 0.6 0.2
v -0.1 0.6 0.2
v 0 0.6 0.2
v -0.4 0.6 0.1
v -0.2 0.6 0.1
v -0.6 0.6 0
v -0.5 0.6 0
v 0.2 0.6 0
v 0.4 0.6 0
v -0.1 0.6 -0.1
v 0 0.6 -0.1
v -0.6 0.6 -0.2
v -0.5 0.6 -0.2
v -0.2 0.6 -0.3
v -0.1 0.6 -0.3
v 0.2 0.6 -0.3
v 0.4 0.6 -0.3
v -0.6 0.6 -0.4
v -0.5 0.6 -0.4
v -0.3 0.6 -0.4
v -0.2 0.6 -0.4
v -0.6 0.6 -0.5
v -0.5 0.6 -0.5
v 0 0.6 -0.5
v 0.2 0.6 -0.5
v -0.5 0.6 -0.6
v -0.3 0.6 -0.6
v 0 0.6 -0.7
v 0.2 0.6 -0.7
v -0.4 0.7 0.3
v -0.2 0.7 0.3
v -0.4 0.7 0.1
v -0.2 0.7 0.1
v -0.2 0.7 -0.3
v 0 0.7 -0.3
v -0.2 0.7 -0.5
v 0 0.7 -0.5

# faces
f 3/1/1 2/1/1 1/1/1
f 4/1/1 2/1/1 3/1/1
f 8/1/1 6/1/1 5/1/1
f 9/1/1 6/1/1 8/1/1
f 11/1/1 8/1/1 7/1/1
f 12/1/1 8/1/1 11/1/1
f 13/1/1 10/1/1 9/1/1
f 14/1/1 10/1/1 13/1/1
f 19/2/1 16/2/1 15/2/1
f 20/2/1 16/2/1 19/2/1
f 21/2/1 16/2/1 20/2/1
f 23/2/1 18/2/1 17/2/1
f 24/2/1 18/2/1 23/2/1
f 25/2/1 18/2/1 24/2/1
f 26/2/1 22/2/1 21/2/1
f 26/2/1 21/2/1 20/2/1
f 27/2/1 22/2/1 26/2/1
f 28/2/1 24/2/1 23/2/1
f 29/2/1 24/2/1 28/2/1
f 30/2/1 26/2/1 20/2/1
f 31/2/1 26/2/1 30/2/1
f 40/2/1 35/2/1 34/2/1
f 41/2/1 35/2/1 40/2/1
f 45/2/1 33/2/1 32/2/1
f 46/2/1 33/2/1 45/2/1
f 47/2/1 39/2/1 38/2/1
f 48/2/1 39/2/1 47/2/1
f 49/2/1 41/2/1 40/2/1
f 49/2/1 42/2/1 41/2/1
f 50/2/1 42/2/1 49/2/1
f 51/2/1 44/2/1 43/2/1
f 52/2/1 44/2/1 51/2/1
f 53/2/1 37/2/1 36/2/1
f 54/2/1 37/2/1 53/2/1
f 55/2/1 49/2/1 40/2/1
f 56/2/1 49/2/1 55/2/1
f 57/2/1 51/2/1 43/2/1
f 58/2/1 51/2/1 57/2/1
f 65/2/1 60/2/1 59/2/1
f 66/2/1 60/2/1 65/2/1
f 69/2/1 62/2/1 61/2/1
f 71/2/1 64/2/1 63/2/1
f 74/2/1 68/2/1 67/2/1
f 75/2/1 68/2/1 74/2/1
f 76/2/1 62/2/1 69/2/1
f 77/2/1 62/2/1 76/2/1
f 78/2/1 71/2/1 70/2/1
f 79/2/1 64/2/1 71/2/1
f 79/2/1 71/2/1 78/2/1
f 80/2/1 73/2/1 72/2/1
f 81/2/1 73/2/1 80/2/1
f 84/2/1 83/2/1 82/2/1
f 85/2/1 83/2/1 84/2/1
f 86/2/1 83/2/1 85/2/1
f 88/2/1 87/2/1 86/2/1
f 88/2/1 86/2/1 85/2/1
f 89/2/1 87/2/1 88/2/1
f 93/2/1 91/2/1 90/2/1
f 94/2/1 93/2/1 92/2/1
f 95/2/1 91/2/1 93/2/1
f 95/2/1 93/2/1 94/2/1
f 98/2/1 97/2/1 96/2/1
f 99/2/1 97/2/1 98/2/1
f 102/2/1 101/2/1 100/2/1
f 103/2/1 101/2/1 102/2/1
f 106/2/1 105/2/1 104/2/1
f 107/2/1 105/2/1 106/2/1
f 110/1/1 109/1/1 108/1/1
f 111/1/1 109/1/1 110/1/1
f 112/1/2 113/1/2 116/1/2
f 114/1/2 115/1/2 117/1/2
f 112/1/2 116/1/2 118/1/2
f 116/1/2 117/1/2 118/1/2
f 117/1/2 115/1/2 119/1/2
f 118/1/2 117/1/2 119/1/2
f 120/2/2 121/2/2 122/2/2
f 122/2/2 121/2/2 123/2/2
f 124/2/2 125/2/2 126/2/2
f 126/2/2 125/2/2 127/2/2
f 128/2/2 129/2/2 130/2/2
f 128/2/2 130/2/2 132/2/2
f 130/2/2 131/2/2 132/2/2
f 132/2/2 131/2/2 133/2/2
f 133/2/2 134/2/2 135/2/2
f 135/2/2 134/2/2 136/2/2
f 137/2/2 138/2/2 139/2/2
f 139/2/2 138/2/2 140/2/2
f 141/2/2 142/2/2 147/2/2
f 147/2/2 142/2/2 148/2/2
f 143/2/2 144/2/2 149/2/2
f 149/2/2 144/2/2 150/2/2
f 145/2/2 146/2/2 151/2/2
f 151/2/2 146/2/2 152/2/2
f 153/2/2 154/2/2 155/2/2
f 155/2/2 154/2/2 156/2/2
f 157/2/2 158/2/2 161/2/2
f 161/2/2 158/2/2 162/2/2
f 159/2/2 160/2/2 163/2/2
f 159/2/2 163/2/2 164/2/2
f 164/2/2 163/2/2 165/2/2
f 166/2/2 167/2/2 168/2/2
f 168/2/2 167/2/2 169/2/2
f 170/2/2 171/2/2 172/2/2
f 172/2/2 171/2/2 173/2/2
f 174/2/2 175/2/2 176/2/2
f 176/2/2 175/2/2 177/2/2
f 178/2/2 179/2/2 184/2/2
f 184/2/2 179/2/2 185/2/2
f 180/2/2 181/2/2 186/2/2
f 186/2/2 181/2/2 187/2/2
f 182/2/2 183/2/2 189/2/2
f 189/2/2 183/2/2 190/2/2
f 190/2/2 183/2/2 191/2/2
f 188/2/2 189/2/2 192/2/2
f 189/2/2 190/2/2 192/2/2
f 192/2/2 190/2/2 193/2/2
f 194/2/2 195/2/2 199/2/2
f 199/2/2 195/2/2 200/2/2
f 196/2/2 197/2/2 201/2/2
f 201/2/2 197/2/2 202/2/2
f 199/2/2 200/2/2 203/2/2
f 198/2/2 199/2/2 203/2/2
f 203/2/2 200/2/2 204/2/2
f 205/2/2 206/2/2 207/2/2
f 207/2/2 206/2/2 208/2/2
f 208/2/2 206/2/2 209/2/2
f 209/2/2 206/2/2 210/2/2
f 205/2/2 207/2/2 211/2/2
f 211/2/2 207/2/2 212/2/2
f 208/2/2 209/2/2 213/2/2
f 213/2/2 209/2/2 214/2/2
f 215/1/2 216/1/2 218/1/2
f 218/1/2 216/1/2 219/1/2
f 217/1/2 218/1/2 221/1/2
f 219/1/2 220/1/2 221/1/2
f 218/1/2 219/1/2 221/1/2
f 221/1/2 220/1/2 222/1/2
f 225/1/3 224/1/3 223/1/3
f 226/1/3 224/1/3 225/1/3
f 230/1/3 228/1/3 227/1/3
f 231/1/3 228/1/3 230/1/3
f 232/1/3 230/1/3 229/1/3
f 233/1/3 230/1/3 232/1/3
f 236/2/3 235/2/3 234/2/3
f 238/2/3 236/2/3 234/2/3
f 238/2/3 237/2/3 236/2/3
f 239/2/3 237/2/3 238/2/3
f 242/2/3 241/2/3 240/2/3
f 243/2/3 241/2/3 242/2/3
f 247/2/3 245/2/3 244/2/3
f 248/2/3 245/2/3 247/2/3
f 249/2/3 247/2/3 246/2/3
f 250/2/3 247/2/3 249/2/3
f 251/2/3 247/2/3 250/2/3
f 252/2/3 247/2/3 251/2/3
f 255/2/3 254/2/3 253/2/3
f 256/2/3 254/2/3 255/2/3
f 259/2/3 258/2/3 257/2/3
f 260/2/3 258/2/3 259/2/3
f 263/2/3 262/2/3 261/2/3
f 264/2/3 262/2/3 263/2/3
f 267/2/3 266/2/3 265/2/3
f 268/2/3 266/2/3 267/2/3
f 271/2/3 270/2/3 269/2/3
f 272/2/3 270/2/3 271/2/3
f 275/2/3 274/2/3 273/2/3
f 276/2/3 274/2/3 275/2/3
f 279/2/3 278/2/3 277/2/3
f 280/2/3 278/2/3 279/2/3
f 283/2/3 282/2/3 281/2/3
f 284/2/3 282/2/3 283/2/3
f 287/2/3 286/2/3 285/2/3
f 288/2/3 286/2/3 287/2/3
f 291/2/3 290/2/3 289/2/3
f 292/2/3 290/2/3 291/2/3
f 295/2/3 294/2/3 293/2/3
f 296/2/3 294/2/3 295/2/3
f 300/2/3 298/2/3 297/2/3
f 301/2/3 300/2/3 299/2/3
f 302/2/3 298/2/3 300/2/3
f 302/2/3 300/2/3 301/2/3
f 305/2/3 304/2/3 303/2/3
f 306/2/3 304/2/3 305/2/3
f 309/2/3 308/2/3 307/2/3
f 310/2/3 308/2/3 309/2/3
f 313/2/3 312/2/3 311/2/3
f 314/2/3 312/2/3 313/2/3
f 315/2/3 312/2/3 314/2/3
f 316/2/3 312/2/3 315/2/3
f 319/1/3 318/1/3 317/1/3
f 320/1/3 318/1/3 319/1/3
f 321/1/3 318/1/3 320/1/3
f 322/1/3 318/1/3 321/1/3
f 326/1/3 324/1/3 323/1/3
f 328/1/3 326/1/3 325/1/3
f 329/1/3 328/1/3 327/1/3
f 330/1/3 324/1/3 326/1/3
f 330/1/3 328/1/3 329/1/3
f 330/1/3 326/1/3 328/1/3
f 331/1/4 332/1/4 333/1/4
f 333/1/4 332/1/4 334/1/4
f 334/1/4 332/1/4 335/1/4
f 335/1/4 332/1/4 336/1/4
f 337/1/4 338/1/4 339/1/4
f 339/1/4 338/1/4 340/1/4
f 341/2/4 342/2/4 343/2/4
f 343/2/4 342/2/4 344/2/4
f 345/2/4 346/2/4 347/2/4
f 347/2/4 346/2/4 348/2/4
f 349/2/4 350/2/4 351/2/4
f 351/2/4 350/2/4 352/2/4
f 353/2/4 354/2/4 355/2/4
f 355/2/4 354/2/4 356/2/4
f 357/2/4 358/2/4 359/2/4
f 359/2/4 358/2/4 360/2/4
f 361/2/4 362/2/4 363/2/4
f 363/2/4 362/2/4 364/2/4
f 365/2/4 366/2/4 367/2/4
f 367/2/4 366/2/4 368/2/4
f 369/2/4 370/2/4 371/2/4
f 371/2/4 370/2/4 372/2/4
f 373/2/4 374/2/4 375/2/4
f 375/2/4 374/2/4 376/2/4
f 377/2/4 378/2/4 379/2/4
f 379/2/4 378/2/4 380/2/4
f 381/2/4 382/2/4 383/2/4
f 383/2/4 382/2/4 384/2/4
f 385/2/4 386/2/4 387/2/4
f 387/2/4 386/2/4 388/2/4
f 389/2/4 390/2/4 391/2/4
f 391/2/4 390/2/4 392/2/4
f 393/2/4 394/2/4 395/2/4
f 395/2/4 394/2/4 396/2/4
f 397/2/4 398/2/4 400/2/4
f 399/2/4 400/2/4 401/2/4
f 400/2/4 398/2/4 402/2/4
f 401/2/4 400/2/4 402/2/4
f 402/2/4 398/2/4 403/2/4
f 404/2/4 405/2/4 406/2/4
f 406/2/4 405/2/4 407/2/4
f 408/2/4 409/2/4 410/2/4
f 410/2/4 409/2/4 411/2/4
f 412/2/4 413/2/4 414/2/4
f 412/2/4 414/2/4 416/2/4
f 414/2/4 415/2/4 416/2/4
f 416/2/4 415/2/4 417/2/4
f 417/2/4 415/2/4 418/2/4
f 418/2/4 419/2/4 420/2/4
f 417/2/4 418/2/4 420/2/4
f 420/2/4 419/2/4 421/2/4
f 417/2/4 420/2/4 422/2/4
f 422/2/4 420/2/4 423/2/4
f 424/2/4 425/2/4 426/2/4
f 426/2/4 425/2/4 427/2/4
f 428/2/4 429/2/4 431/2/4
f 429/2/4 430/2/4 431/2/4
f 431/2/4 430/2/4 432/2/4
f 428/2/4 431/2/4 433/2/4
f 433/2/4 431/2/4 434/2/4
f 428/2/4 433/2/4 435/2/4
f 435/2/4 433/2/4 436/2/4
f 437/1/4 438/1/4 440/1/4
f 440/1/4 438/1/4 441/1/4
f 439/1/4 440/1/4 442/1/4
f 442/1/4 440/1/4 443/1/4
f 444/1/4 445/1/4 446/1/4
f 446/1/4 445/1/4 447/1/4
f 450/1/5 449/1/5 448/1/5
f 451/1/5 449/1/5 450/1/5
f 455/1/5 453/1/5 452/1/5
f 456/1/5 453/1/5 455/1/5
f 457/1/5 455/1/5 454/1/5
f 458/1/5 455/1/5 457/1/5
f 460/1/5 459/1/5 458/1/5
f 461/1/5 459/1/5 460/1/5
f 464/1/6 465/1/6 466/1/6
f 466/1/6 465/1/6 467/1/6
f 462/1/6 463/1/6 468/1/6
f 468/1/6 463/1/6 469/1/6
f 470/1/6 471/1/6 472/1/6
f 472/1/6 471/1/6 473/1/6
f 467/1/6 465/1/6 474/1/6
f 474/1/6 465/1/6 475/1/6
f 476/2/6 477/2/6 480/2/6
f 480/2/6 477/2/6 481/2/6
f 478/2/6 479/2/6 482/2/6
f 482/2/6 479/2/6 483/2/6
f 484/2/6 485/2/6 486/2/6
f 486/2/6 487/2/6 490/2/6
f 484/2/6 486/2/6 490/2/6
f 490/2/6 487/2/6 491/2/6
f 491/2/6 487/2/6 492/2/6
f 488/2/6 489/2/6 493/2/6
f 493/2/6 489/2/6 494/2/6
f 495/2/6 496/2/6 500/2/6
f 497/2/6 498/2/6 501/2/6
f 501/2/6 498/2/6 502/2/6
f 499/2/6 500/2/6 504/2/6
f 497/2/6 501/2/6 505/2/6
f 505/2/6 501/2/6 506/2/6
f 503/2/6 504/2/6 507/2/6
f 500/2/6 496/2/6 508/2/6
f 507/2/6 504/2/6 508/2/6
f 504/2/6 500/2/6 508/2/6
f 509/2/6 510/2/6 511/2/6
f 511/2/6 510/2/6 512/2/6
f 512/2/6 510/2/6 513/2/6
f 513/2/6 510/2/6 514/2/6
f 515/2/6 516/2/6 517/2/6
f 514/2/6 510/2/6 519/2/6
f 519/2/6 510/2/6 520/2/6
f 517/2/6 518/2/6 521/2/6
f 515/2/6 517/2/6 521/2/6
f 521/2/6 518/2/6 522/2/6
f 522/2/6 518/2/6 523/2/6
f 520/2/6 510/2/6 524/2/6
f 524/2/6 510/2/6 525/2/6
f 526/2/6 527/2/6 531/2/6
f 526/2/6 531/2/6 533/2/6
f 531/2/6 532/2/6 533/2/6
f 533/2/6 532/2/6 534/2/6
f 529/2/6 530/2/6 538/2/6
f 528/2/6 529/2/6 538/2/6
f 538/2/6 530/2/6 539/2/6
f 539/2/6 530/2/6 540/2/6
f 526/2/6 533/2/6 541/2/6
f 541/2/6 533/2/6 542/2/6
f 535/2/6 536/2/6 544/2/6
f 537/2/6 538/2/6 545/2/6
f 538/2/6 539/2/6 545/2/6
f 545/2/6 539/2/6 546/2/6
f 543/2/6 544/2/6 547/2/6
f 547/2/6 544/2/6 548/2/6
f 544/2/6 536/2/6 549/2/6
f 548/2/6 544/2/6 549/2/6
f 537/2/6 545/2/6 550/2/6
f 550/2/6 545/2/6 551/2/6
f 548/2/6 549/2/6 552/2/6
f 552/2/6 549/2/6 553/2/6
f 554/1/6 555/1/6 557/1/6
f 557/1/6 555/1/6 558/1/6
f 556/1/6 557/1/6 558/1/6
f 558/1/6 555/1/6 559/1/6
f 559/1/6 555/1/6 560/1/6
f 560/1/6 555/1/6 561/1/6
f 559/2/6 560/2/6 563/2/6
f 563/2/6 560/2/6 564/2/6
f 564/2/6 560/2/6 565/2/6
f 565/2/6 566/2/6 567/2/6
f 562/2/6 563/2/6 569/2/6
f 563/2/6 564/2/6 569/2/6
f 567/2/6 568/2/6 571/2/6
f 565/2/6 567/2/6 571/2/6
f 571/2/6 568/2/6 572/2/6
f 569/2/6 570/2/6 573/2/6
f 562/2/6 569/2/6 573/2/6
f 573/2/6 570/2/6 574/2/6
f 574/2/6 570/2/6 575/2/6
f 575/2/6 570/2/6 576/2/6
f 576/2/6 570/2/6 577/2/6
f 572/2/6 568/2/6 578/2/6
f 578/2/6 568/2/6 579/2/6
f 579/2/6 568/2/6 580/2/6
f 580/2/6 581/2/6 582/2/6
f 579/2/6 580/2/6 582/2/6
f 582/2/6 581/2/6 583/2/6
f 579/2/6 582/2/6 585/2/6
f 583/2/6 581/2/6 588/2/6
f 588/2/6 581/2/6 589/2/6
f 586/2/6 587/2/6 590/2/6
f 590/2/6 587/2/6 591/2/6
f 584/2/6 585/2/6 592/2/6
f 585/2/6 582/2/6 593/2/6
f 592/2/6 585/2/6 593/2/6
f 593/2/6 582/2/6 594/2/6
f 596/2/6 597/2/6 600/2/6
f 594/2/6 595/2/6 602/2/6
f 593/2/6 594/2/6 602/2/6
f 602/2/6 595/2/6 603/2/6
f 603/2/6 595/2/6 604/2/6
f 604/2/6 595/2/6 605/2/6
f 598/2/6 599/2/6 606/2/6
f 606/2/6 599/2/6 607/2/6
f 600/2/6 601/2/6 608/2/6
f 596/2/6 600/2/6 608/2/6
f 608/2/6 601/2/6 609/2/6
f 603/2/6 604/2/6 612/2/6
f 612/2/6 604/2/6 613/2/6
f 556/1/6 558/1/6 614/1/6
f 610/2/6 611/2/6 615/2/6
f 615/2/6 611/2/6 616/2/6
f 561/1/6 555/1/6 617/1/6
f 615/1/6 616/1/6 618/1/6
f 616/1/6 617/1/6 618/1/6
f 614/1/6 615/1/6 618/1/6
f 556/1/6 614/1/6 618/1/6
f 618/1/6 617/1/6 619/1/6
f 619/1/6 617/1/6 620/1/6
f 617/1/6 555/1/6 621/1/6
f 620/1/6 617/1/6 621/1/6
f 622/2/6 623/2/6 624/2/6
f 624/2/6 623/2/6 625/2/6
f 625/2/6 623/2/6 626/2/6
f 626/2/6 627/2/6 628/2/6
f 625/2/6 626/2/6 628/2/6
f 628/2/6 627/2/6 629/2/6
f 629/2/6 627/2/6 632/2/6
f 630/2/6 631/2/6 634/2/6
f 632/2/6 633/2/6 635/2/6
f 629/2/6 632/2/6 635/2/6
f 630/2/6 634/2/6 637/2/6
f 634/2/6 635/2/6 637/2/6
f 635/2/6 633/2/6 640/2/6
f 637/2/6 635/2/6 640/2/6
f 636/2/6 637/2/6 640/2/6
f 640/2/6 633/2/6 641/2/6
f 636/2/6 640/2/6 642/2/6
f 642/2/6 640/2/6 643/2/6
f 643/2/6 640/2/6 644/2/6
f 644/2/6 640/2/6 645/2/6
f 638/2/6 639/2/6 646/2/6
f 646/2/6 639/2/6 647/2/6
f 643/2/6 644/2/6 649/2/6
f 649/2/6 644/2/6 650/2/6
f 650/2/6 644/2/6 651/2/6
f 648/2/6 649/2/6 652/2/6
f 649/2/6 650/2/6 652/2/6
f 652/2/6 650/2/6 653/2/6
f 653/2/6 650/2/6 656/2/6
f 656/2/6 650/2/6 657/2/6
f 654/2/6 655/2/6 658/2/6
f 658/2/6 655/2/6 659/2/6
f 660/2/6 661/2/6 662/2/6
f 662/2/6 661/2/6 663/2/6
f 664/2/6 665/2/6 666/2/6
f 666/2/6 665/2/6 667/2/6
