# MagicaVoxel @ Ephtracy

# group
o 

# material
mtllib rose.mtl
usemtl palette

# normals
vn -1 0 0
vn 1 0 0
vn 0 0 1
vn 0 0 -1
vn 0 -1 0
vn 0 1 0

# texcoords
vt 0.857422 0.5
vt 0.908203 0.5

# verts
v -0.3 0.7 0.1
v -0.3 0.7 -0.2
v -0.3 1.1 0.1
v -0.3 1.1 -0.2
v -0.2 0 0.1
v -0.2 0 4.47035e-08
v -0.2 0.3 4.47035e-08
v -0.2 0.3 -0.1
v -0.2 0.4 0.1
v -0.2 0.4 4.47035e-08
v -0.2 0.7 4.47035e-08
v -0.2 0.7 -0.1
v -0.1 0 0.1
v -0.1 0 4.47035e-08
v -0.1 0.3 4.47035e-08
v -0.1 0.3 -0.1
v -0.1 0.4 0.1
v -0.1 0.4 4.47035e-08
v -0.1 0.7 4.47035e-08
v -0.1 0.7 -0.1
v 2.98023e-08 0.7 0.1
v 2.98023e-08 0.7 -0.2
v 2.98023e-08 1.1 0.1
v 2.98023e-08 1.1 -0.2
v -0.3 0.7 0.1
v -0.3 1.1 0.1
v -0.2 0 0.1
v -0.2 0.4 0.1
v -0.1 0 0.1
v -0.1 0.4 0.1
v 2.98023e-08 0.7 0.1
v 2.98023e-08 1.1 0.1
v -0.2 0.4 4.47035e-08
v -0.2 0.7 4.47035e-08
v -0.1 0.4 4.47035e-08
v -0.1 0.7 4.47035e-08
v -0.2 0 4.47035e-08
v -0.2 0.3 4.47035e-08
v -0.1 0 4.47035e-08
v -0.1 0.3 4.47035e-08
v -0.2 0.3 -0.1
v -0.2 0.7 -0.1
v -0.1 0.3 -0.1
v -0.1 0.7 -0.1
v -0.3 0.7 -0.2
v -0.3 1.1 -0.2
v 2.98023e-08 0.7 -0.2
v 2.98023e-08 1.1 -0.2
v -0.2 0 0.1
v -0.1 0 0.1
v -0.2 0 4.47035e-08
v -0.1 0 4.47035e-08
v -0.2 0.3 4.47035e-08
v -0.1 0.3 4.47035e-08
v -0.2 0.3 -0.1
v -0.1 0.3 -0.1
v -0.3 0.7 0.1
v 2.98023e-08 0.7 0.1
v -0.2 0.7 4.47035e-08
v -0.1 0.7 4.47035e-08
v -0.2 0.7 -0.1
v -0.1 0.7 -0.1
v -0.3 0.7 -0.2
v 2.98023e-08 0.7 -0.2
v -0.2 0.4 0.1
v -0.1 0.4 0.1
v -0.2 0.4 4.47035e-08
v -0.1 0.4 4.47035e-08
v -0.3 1.1 0.1
v 2.98023e-08 1.1 0.1
v -0.3 1.1 -0.2
v 2.98023e-08 1.1 -0.2

# faces
f 3/1/1 2/1/1 1/1/1
f 4/1/1 2/1/1 3/1/1
f 7/2/1 6/2/1 5/2/1
f 9/2/1 7/2/1 5/2/1
f 9/2/1 8/2/1 7/2/1
f 10/2/1 8/2/1 9/2/1
f 11/2/1 8/2/1 10/2/1
f 12/2/1 8/2/1 11/2/1
f 13/2/2 14/2/2 15/2/2
f 13/2/2 15/2/2 17/2/2
f 15/2/2 16/2/2 17/2/2
f 17/2/2 16/2/2 18/2/2
f 18/2/2 16/2/2 19/2/2
f 19/2/2 16/2/2 20/2/2
f 21/1/2 22/1/2 23/1/2
f 23/1/2 22/1/2 24/1/2
f 29/2/3 28/2/3 27/2/3
f 30/2/3 28/2/3 29/2/3
f 31/1/3 26/1/3 25/1/3
f 32/1/3 26/1/3 31/1/3
f 35/2/3 34/2/3 33/2/3
f 36/2/3 34/2/3 35/2/3
f 37/2/4 38/2/4 39/2/4
f 39/2/4 38/2/4 40/2/4
f 41/2/4 42/2/4 43/2/4
f 43/2/4 42/2/4 44/2/4
f 45/1/4 46/1/4 47/1/4
f 47/1/4 46/1/4 48/1/4
f 51/2/5 50/2/5 49/2/5
f 52/2/5 50/2/5 51/2/5
f 55/2/5 54/2/5 53/2/5
f 56/2/5 54/2/5 55/2/5
f 59/1/5 58/1/5 57/1/5
f 60/1/5 58/1/5 59/1/5
f 61/1/5 59/1/5 57/1/5
f 62/1/5 58/1/5 60/1/5
f 63/1/5 61/1/5 57/1/5
f 63/1/5 62/1/5 61/1/5
f 64/1/5 58/1/5 62/1/5
f 64/1/5 62/1/5 63/1/5
f 65/2/6 66/2/6 67/2/6
f 67/2/6 66/2/6 68/2/6
f 69/1/6 70/1/6 71/1/6
f 71/1/6 70/1/6 72/1/6
