# MagicaVoxel @ Ephtracy

# group
o head

# material
mtllib zombie-11-head.mtl
usemtl palette

# normals
vn -1 0 0
vn 1 0 0
vn 0 0 1
vn 0 0 -1
vn 0 -1 0
vn 0 1 0

# texcoords
vt 0.908203 0.5
vt 0.994141 0.5

# verts
v -1.6 15.6 1.5
v -1.6 15.6 -1.5
v -1.6 16.4 0.5
v -1.6 16.4 -0.5
v -1.6 16.5 0.7
v -1.6 16.5 0.5
v -1.6 16.5 -0.5
v -1.6 16.5 -0.7
v -1.6 16.6 0.9
v -1.6 16.6 0.7
v -1.6 16.6 -0.7
v -1.6 16.6 -0.8
v -1.6 16.7 0.9
v -1.6 16.7 0.8
v -1.6 16.7 -0.8
v -1.6 16.7 -0.9
v -1.6 16.9 0.8
v -1.6 16.9 0.7
v -1.6 16.9 0.6
v -1.6 16.9 -0.9
v -1.6 17 0.7
v -1.6 17 0.6
v -1.6 17.5 0.7
v -1.6 17.5 0.4
v -1.6 17.6 0.4
v -1.6 17.6 0.3
v -1.6 17.6 -0.6
v -1.6 17.6 -0.9
v -1.6 17.7 0.8
v -1.6 17.7 0.7
v -1.6 17.7 -0.5
v -1.6 17.7 -0.6
v -1.6 17.7 -0.9
v -1.6 17.7 -1
v -1.6 17.8 -0.9
v -1.6 17.8 -1
v -1.6 18 0.8
v -1.6 18 0.7
v -1.6 18 0.1
v -1.6 18 0
v -1.6 18 -0.4
v -1.6 18 -0.5
v -1.6 18.1 0.7
v -1.6 18.1 0.3
v -1.6 18.1 -0.5
v -1.6 18.1 -0.9
v -1.6 18.2 -0.5
v -1.6 18.2 -0.6
v -1.6 18.3 0.2
v -1.6 18.3 0.1
v -1.6 18.3 -0.4
v -1.6 18.3 -0.5
v -1.6 18.3 -0.6
v -1.6 18.3 -0.7
v -1.6 18.4 0.5
v -1.6 18.4 0.2
v -1.6 18.4 0.1
v -1.6 18.4 0
v -1.6 18.4 -0.5
v -1.6 18.4 -0.7
v -1.6 18.5 0.5
v -1.6 18.5 0.1
v -1.6 18.6 1.5
v -1.6 18.6 -1.5
v -1.5 15.5 1.5
v -1.5 15.5 -1.5
v -1.5 15.6 1.6
v -1.5 15.6 1.5
v -1.5 15.6 -1.5
v -1.5 15.6 -1.6
v -1.5 18.6 1.6
v -1.5 18.6 1.5
v -1.5 18.6 -1.5
v -1.5 18.6 -1.6
v -1.5 18.7 1.5
v -1.5 18.7 -1.5
v 1.5 15.5 1.5
v 1.5 15.5 -1.5
v 1.5 15.6 1.6
v 1.5 15.6 1.5
v 1.5 15.6 -1.5
v 1.5 15.6 -1.6
v 1.5 18.6 1.6
v 1.5 18.6 1.5
v 1.5 18.6 -1.5
v 1.5 18.6 -1.6
v 1.5 18.7 1.5
v 1.5 18.7 -1.5
v 1.6 15.6 1.5
v 1.6 15.6 -1.5
v 1.6 18.6 1.5
v 1.6 18.6 -1.5
v -1.5 15.6 1.6
v -1.5 18.6 1.6
v 1.5 15.6 1.6
v 1.5 18.6 1.6
v -1.6 15.6 1.5
v -1.6 18.6 1.5
v -1.5 15.5 1.5
v -1.5 15.6 1.5
v -1.5 18.6 1.5
v -1.5 18.7 1.5
v 1.5 15.5 1.5
v 1.5 15.6 1.5
v 1.5 18.6 1.5
v 1.5 18.7 1.5
v 1.6 15.6 1.5
v 1.6 18.6 1.5
v -1.6 15.6 -1.5
v -1.6 18.6 -1.5
v -1.5 15.5 -1.5
v -1.5 15.6 -1.5
v -1.5 18.6 -1.5
v -1.5 18.7 -1.5
v 1.5 15.5 -1.5
v 1.5 15.6 -1.5
v 1.5 18.6 -1.5
v 1.5 18.7 -1.5
v 1.6 15.6 -1.5
v 1.6 18.6 -1.5
v -1.5 15.6 -1.6
v -1.5 18.6 -1.6
v 1.5 15.6 -1.6
v 1.5 18.6 -1.6
v -1.5 15.5 1.5
v 1.5 15.5 1.5
v -1.5 15.5 -1.5
v 1.5 15.5 -1.5
v -1.5 15.6 1.6
v 1.5 15.6 1.6
v -1.6 15.6 1.5
v -1.5 15.6 1.5
v 1.5 15.6 1.5
v 1.6 15.6 1.5
v -1.6 15.6 -1.5
v -1.5 15.6 -1.5
v 1.5 15.6 -1.5
v 1.6 15.6 -1.5
v -1.5 15.6 -1.6
v 1.5 15.6 -1.6
v -1.5 18.6 1.6
v 1.5 18.6 1.6
v -1.6 18.6 1.5
v -1.5 18.6 1.5
v 1.5 18.6 1.5
v 1.6 18.6 1.5
v -1.6 18.6 -1.5
v -1.5 18.6 -1.5
v 1.5 18.6 -1.5
v 1.6 18.6 -1.5
v -1.5 18.6 -1.6
v 1.5 18.6 -1.6
v -1.5 18.7 1.5
v 1.5 18.7 1.5
v -0.3 18.7 0.5
v 0.1 18.7 0.5
v -0.4 18.7 0.4
v -0.3 18.7 0.4
v 0.1 18.7 0.4
v 0.3 18.7 0.4
v 0.1 18.7 0.3
v 0.3 18.7 0.3
v -0.2 18.7 0.2
v -0.1 18.7 0.2
v -0.5 18.7 0.1
v -0.4 18.7 0.1
v -0.3 18.7 0.1
v -0.2 18.7 0.1
v -0.1 18.7 0.1
v 0.1 18.7 0.1
v -0.4 18.7 0
v -0.3 18.7 0
v -0.1 18.7 0
v 0 18.7 0
v -0.5 18.7 -0.1
v -0.4 18.7 -0.1
v -0.3 18.7 -0.1
v 0 18.7 -0.1
v -0.4 18.7 -0.2
v 0.1 18.7 -0.2
v -1.5 18.7 -1.5
v 1.5 18.7 -1.5

# faces
f 3/1/1 2/1/1 1/1/1
f 4/1/1 2/1/1 3/1/1
f 5/1/1 3/1/1 1/1/1
f 6/2/1 4/2/1 3/2/1
f 6/1/1 3/1/1 5/1/1
f 7/1/1 2/1/1 4/1/1
f 7/2/1 4/2/1 6/2/1
f 8/1/1 2/1/1 7/1/1
f 9/1/1 5/1/1 1/1/1
f 10/2/1 6/2/1 5/2/1
f 10/1/1 5/1/1 9/1/1
f 10/2/1 7/2/1 6/2/1
f 10/2/1 8/2/1 7/2/1
f 11/1/1 2/1/1 8/1/1
f 11/2/1 8/2/1 10/2/1
f 12/1/1 2/1/1 11/1/1
f 13/1/1 9/1/1 1/1/1
f 13/2/1 10/2/1 9/2/1
f 13/2/1 12/2/1 11/2/1
f 13/2/1 11/2/1 10/2/1
f 14/2/1 12/2/1 13/2/1
f 15/1/1 2/1/1 12/1/1
f 15/2/1 12/2/1 14/2/1
f 16/1/1 2/1/1 15/1/1
f 17/1/1 14/1/1 13/1/1
f 17/2/1 15/2/1 14/2/1
f 17/2/1 16/2/1 15/2/1
f 18/2/1 16/2/1 17/2/1
f 19/2/1 16/2/1 18/2/1
f 20/1/1 2/1/1 16/1/1
f 20/2/1 16/2/1 19/2/1
f 21/2/1 19/2/1 18/2/1
f 21/1/1 18/1/1 17/1/1
f 22/1/1 20/1/1 19/1/1
f 22/2/1 19/2/1 21/2/1
f 23/1/1 21/1/1 17/1/1
f 23/1/1 22/1/1 21/1/1
f 24/1/1 20/1/1 22/1/1
f 24/1/1 22/1/1 23/1/1
f 25/2/1 24/2/1 23/2/1
f 25/1/1 20/1/1 24/1/1
f 26/1/1 20/1/1 25/1/1
f 27/1/1 20/1/1 26/1/1
f 28/1/1 2/1/1 20/1/1
f 28/1/1 20/1/1 27/1/1
f 29/1/1 17/1/1 13/1/1
f 29/1/1 23/1/1 17/1/1
f 30/2/1 25/2/1 23/2/1
f 30/1/1 23/1/1 29/1/1
f 30/2/1 26/2/1 25/2/1
f 31/1/1 27/1/1 26/1/1
f 32/2/1 28/2/1 27/2/1
f 32/1/1 27/1/1 31/1/1
f 33/1/1 2/1/1 28/1/1
f 33/2/1 28/2/1 32/2/1
f 34/1/1 2/1/1 33/1/1
f 35/2/1 32/2/1 31/2/1
f 35/2/1 33/2/1 32/2/1
f 35/2/1 34/2/1 33/2/1
f 36/1/1 2/1/1 34/1/1
f 36/2/1 34/2/1 35/2/1
f 37/1/1 29/1/1 13/1/1
f 37/2/1 30/2/1 29/2/1
f 38/2/1 26/2/1 30/2/1
f 38/2/1 30/2/1 37/2/1
f 39/1/1 31/1/1 26/1/1
f 40/1/1 31/1/1 39/1/1
f 41/1/1 31/1/1 40/1/1
f 42/2/1 35/2/1 31/2/1
f 42/1/1 31/1/1 41/1/1
f 43/2/1 26/2/1 38/2/1
f 43/1/1 38/1/1 37/1/1
f 44/1/1 39/1/1 26/1/1
f 44/2/1 26/2/1 43/2/1
f 45/2/1 35/2/1 42/2/1
f 45/2/1 42/2/1 41/2/1
f 46/1/1 36/1/1 35/1/1
f 46/2/1 35/2/1 45/2/1
f 47/2/1 45/2/1 41/2/1
f 47/1/1 46/1/1 45/1/1
f 48/1/1 46/1/1 47/1/1
f 49/1/1 39/1/1 44/1/1
f 49/1/1 44/1/1 43/1/1
f 50/2/1 40/2/1 39/2/1
f 50/1/1 39/1/1 49/1/1
f 51/1/1 41/1/1 40/1/1
f 51/2/1 48/2/1 47/2/1
f 51/2/1 47/2/1 41/2/1
f 52/2/1 48/2/1 51/2/1
f 53/1/1 46/1/1 48/1/1
f 53/2/1 48/2/1 52/2/1
f 54/1/1 46/1/1 53/1/1
f 55/1/1 49/1/1 43/1/1
f 56/2/1 50/2/1 49/2/1
f 56/1/1 49/1/1 55/1/1
f 57/2/1 40/2/1 50/2/1
f 57/2/1 50/2/1 56/2/1
f 58/1/1 52/1/1 51/1/1
f 58/2/1 40/2/1 57/2/1
f 58/1/1 51/1/1 40/1/1
f 59/2/1 54/2/1 53/2/1
f 59/1/1 52/1/1 58/1/1
f 59/2/1 53/2/1 52/2/1
f 60/1/1 46/1/1 54/1/1
f 60/2/1 54/2/1 59/2/1
f 61/2/1 56/2/1 55/2/1
f 61/2/1 57/2/1 56/2/1
f 61/1/1 55/1/1 43/1/1
f 62/1/1 60/1/1 59/1/1
f 62/2/1 57/2/1 61/2/1
f 62/1/1 58/1/1 57/1/1
f 62/1/1 59/1/1 58/1/1
f 63/1/1 37/1/1 13/1/1
f 63/1/1 13/1/1 1/1/1
f 63/1/1 62/1/1 61/1/1
f 63/1/1 43/1/1 37/1/1
f 63/1/1 61/1/1 43/1/1
f 64/1/1 60/1/1 62/1/1
f 64/1/1 62/1/1 63/1/1
f 64/1/1 36/1/1 46/1/1
f 64/1/1 2/1/1 36/1/1
f 64/1/1 46/1/1 60/1/1
f 68/1/1 66/1/1 65/1/1
f 69/1/1 66/1/1 68/1/1
f 71/1/1 68/1/1 67/1/1
f 72/1/1 68/1/1 71/1/1
f 73/1/1 70/1/1 69/1/1
f 74/1/1 70/1/1 73/1/1
f 75/1/1 73/1/1 72/1/1
f 76/1/1 73/1/1 75/1/1
f 77/1/2 78/1/2 80/1/2
f 80/1/2 78/1/2 81/1/2
f 79/1/2 80/1/2 83/1/2
f 83/1/2 80/1/2 84/1/2
f 81/1/2 82/1/2 85/1/2
f 85/1/2 82/1/2 86/1/2
f 84/1/2 85/1/2 87/1/2
f 87/1/2 85/1/2 88/1/2
f 89/1/2 90/1/2 91/1/2
f 91/1/2 90/1/2 92/1/2
f 95/1/3 94/1/3 93/1/3
f 96/1/3 94/1/3 95/1/3
f 100/1/3 98/1/3 97/1/3
f 101/1/3 98/1/3 100/1/3
f 103/1/3 100/1/3 99/1/3
f 104/1/3 100/1/3 103/1/3
f 105/1/3 102/1/3 101/1/3
f 106/1/3 102/1/3 105/1/3
f 107/1/3 105/1/3 104/1/3
f 108/1/3 105/1/3 107/1/3
f 109/1/4 110/1/4 112/1/4
f 112/1/4 110/1/4 113/1/4
f 111/1/4 112/1/4 115/1/4
f 115/1/4 112/1/4 116/1/4
f 113/1/4 114/1/4 117/1/4
f 117/1/4 114/1/4 118/1/4
f 116/1/4 117/1/4 119/1/4
f 119/1/4 117/1/4 120/1/4
f 121/1/4 122/1/4 123/1/4
f 123/1/4 122/1/4 124/1/4
f 127/1/5 126/1/5 125/1/5
f 128/1/5 126/1/5 127/1/5
f 132/1/5 130/1/5 129/1/5
f 133/1/5 130/1/5 132/1/5
f 135/1/5 132/1/5 131/1/5
f 136/1/5 132/1/5 135/1/5
f 137/1/5 134/1/5 133/1/5
f 138/1/5 134/1/5 137/1/5
f 139/1/5 137/1/5 136/1/5
f 140/1/5 137/1/5 139/1/5
f 141/1/6 142/1/6 144/1/6
f 144/1/6 142/1/6 145/1/6
f 143/1/6 144/1/6 147/1/6
f 147/1/6 144/1/6 148/1/6
f 145/1/6 146/1/6 149/1/6
f 149/1/6 146/1/6 150/1/6
f 148/1/6 149/1/6 151/1/6
f 151/1/6 149/1/6 152/1/6
f 153/1/6 154/1/6 155/1/6
f 155/1/6 154/1/6 156/1/6
f 153/1/6 155/1/6 157/1/6
f 155/2/6 156/2/6 158/2/6
f 157/1/6 155/1/6 158/1/6
f 156/1/6 154/1/6 159/1/6
f 158/2/6 156/2/6 159/2/6
f 159/1/6 154/1/6 160/1/6
f 158/1/6 159/1/6 161/1/6
f 159/2/6 160/2/6 161/2/6
f 160/1/6 154/1/6 162/1/6
f 161/2/6 160/2/6 162/2/6
f 158/1/6 161/1/6 163/1/6
f 161/1/6 162/1/6 163/1/6
f 163/1/6 162/1/6 164/1/6
f 153/1/6 157/1/6 165/1/6
f 157/2/6 158/2/6 166/2/6
f 165/1/6 157/1/6 166/1/6
f 158/1/6 163/1/6 167/1/6
f 166/2/6 158/2/6 167/2/6
f 163/2/6 164/2/6 168/2/6
f 167/1/6 163/1/6 168/1/6
f 164/1/6 162/1/6 169/1/6
f 168/2/6 164/2/6 169/2/6
f 169/1/6 162/1/6 170/1/6
f 167/1/6 168/1/6 171/1/6
f 165/2/6 166/2/6 171/2/6
f 166/1/6 167/1/6 171/1/6
f 168/1/6 169/1/6 171/1/6
f 171/1/6 169/1/6 172/1/6
f 169/2/6 170/2/6 173/2/6
f 172/1/6 169/1/6 173/1/6
f 173/2/6 170/2/6 174/2/6
f 153/1/6 165/1/6 175/1/6
f 171/2/6 172/2/6 175/2/6
f 165/2/6 171/2/6 175/2/6
f 175/2/6 172/2/6 176/2/6
f 173/1/6 174/1/6 177/1/6
f 176/2/6 172/2/6 177/2/6
f 172/1/6 173/1/6 177/1/6
f 174/2/6 170/2/6 178/2/6
f 177/1/6 174/1/6 178/1/6
f 176/2/6 177/2/6 179/2/6
f 175/1/6 176/1/6 179/1/6
f 177/2/6 178/2/6 179/2/6
f 178/2/6 170/2/6 180/2/6
f 179/2/6 178/2/6 180/2/6
f 170/1/6 162/1/6 180/1/6
f 175/1/6 179/1/6 181/1/6
f 153/1/6 175/1/6 181/1/6
f 179/1/6 180/1/6 181/1/6
f 180/1/6 162/1/6 182/1/6
f 181/1/6 180/1/6 182/1/6
f 162/1/6 154/1/6 182/1/6
